<svg viewBox="0 0 24 24" fill="none" xmlns="http://www.w3.org/2000/svg">
  <path d="M12 2C6.48 2 2 6.48 2 12C2 17.52 6.48 22 12 22C17.52 22 22 17.52 22 12C22 6.48 17.52 2 12 2ZM11 19.93C7.05 19.44 4 16.08 4 12C4 11.36 4.11 10.75 4.29 10.18L8.71 14.6C8.5 15.07 8.34 15.58 8.24 16.11L11 19.93ZM17.71 14.82C17.89 14.25 18 13.64 18 13C18 8.92 14.95 5.56 11 5.07V8.89L17.71 14.82ZM12 4C13.1 4 14 4.9 14 6C14 7.1 13.1 8 12 8C10.9 8 10 7.1 10 6C10 4.9 10.9 4 12 4ZM12 10C10.9 10 10 10.9 10 12C10 13.1 10.9 14 12 14C13.1 14 14 13.1 14 12C14 10.9 13.1 10 12 10Z" fill="currentColor"/>
</svg>

