<svg viewBox="0 0 24 24" fill="none" xmlns="http://www.w3.org/2000/svg">
  <path d="M16 11C17.66 11 18.99 9.66 18.99 8C18.99 6.34 17.66 5 16 5C14.34 5 13 6.34 13 8C13 9.66 14.34 11 16 11ZM8 11C9.66 11 10.99 9.66 10.99 8C10.99 6.34 9.66 5 8 5C6.34 5 5 6.34 5 8C5 9.66 6.34 11 8 11ZM12 13C13.67 13 15.01 11.66 15.01 10C15.01 8.34 13.67 7 12 7C10.33 7 8.99 8.34 8.99 10C8.99 11.66 10.33 13 12 13ZM8 13C5.79 13 4 14.79 4 17V19H12V17C12 14.79 10.21 13 8 13ZM16 13C13.79 13 12 14.79 12 17V19H20V17C20 14.79 18.21 13 16 13ZM12 9C10.67 9 9.5 9.67 8.97 10.59C9.61 11.42 10 12.38 10 13.4V15H14V13.4C14 12.38 14.39 11.42 15.03 10.59C14.5 9.67 13.33 9 12 9Z" fill="currentColor"/>
</svg>

