<svg viewBox="0 0 24 24" fill="none" xmlns="http://www.w3.org/2000/svg">
  <path d="M9 11.24V7.5C9 6.12 10.12 5 11.5 5S14 6.12 14 7.5V11.24C15.21 11.73 16 12.96 16 14.5C16 16.43 14.43 18 12.5 18S9 16.43 9 14.5C9 12.96 9.79 11.73 11 11.24ZM13 7.5C13 6.67 12.33 6 11.5 6S10 6.67 10 7.5V10H13V7.5ZM12.5 16C13.33 16 14 15.33 14 14.5C14 13.67 13.33 13 12.5 13S11 13.67 11 14.5C11 15.33 11.67 16 12.5 16ZM6.5 6H4.5C4.22 6 4 6.22 4 6.5V9.5C4 9.78 4.22 10 4.5 10H6C6 10.55 6.45 11 7 11S8 10.55 8 10H9.5C9.78 10 10 9.78 10 9.5V6.5C10 6.22 9.78 6 9.5 6H8C8 5.45 7.55 5 7 5S6 5.45 6 6H6.5ZM19 6H17C17 5.45 16.55 5 16 5S15 5.45 15 6H13.5C13.22 6 13 6.22 13 6.5V9.5C13 9.78 13.22 10 13.5 10H15C15 10.55 15.45 11 16 11S17 10.55 17 10H19.5C19.78 10 20 9.78 20 9.5V6.5C20 6.22 19.78 6 19.5 6H19Z" fill="currentColor"/>
</svg>

