<svg viewBox="0 0 24 24" fill="none" xmlns="http://www.w3.org/2000/svg">
  <path d="M12 2C6.48 2 2 6.48 2 12C2 17.52 6.48 22 12 22C17.52 22 22 17.52 22 12C22 6.48 17.52 2 12 2ZM13.41 18.09V15.58C13.41 14.68 12.75 13.93 11.85 13.93H10.15C9.25 13.93 8.59 14.68 8.59 15.58V18.09C7.09 17.5 5.89 16.3 5.3 14.8H7.79C8.18 15.7 9.05 16.28 10.05 16.28H13.95C14.95 16.28 15.82 15.7 16.21 14.8H18.7C18.11 16.3 16.91 17.5 15.41 18.09ZM7.5 10.5C7.5 8.57 9.07 7 11 7C12.93 7 14.5 8.57 14.5 10.5C14.5 12.43 12.93 14 11 14C9.07 14 7.5 12.43 7.5 10.5Z" fill="currentColor"/>
</svg>

