<svg viewBox="0 0 24 24" fill="none" xmlns="http://www.w3.org/2000/svg">
  <path d="M16 4C14.9 4 14 4.9 14 6C14 7.1 14.9 8 16 8C17.1 8 18 7.1 18 6C18 4.9 17.1 4 16 4ZM16 6C16.55 6 17 6.45 17 7C17 7.55 16.55 8 16 8C15.45 8 15 7.55 15 7C15 6.45 15.45 6 16 6ZM8 4C6.9 4 6 4.9 6 6C6 7.1 6.9 8 8 8C9.1 8 10 7.1 10 6C10 4.9 9.1 4 8 4ZM8 6C8.55 6 9 6.45 9 7C9 7.55 8.55 8 8 8C7.45 8 7 7.55 7 7C7 6.45 7.45 6 8 6ZM12 10C10.9 10 10 10.9 10 12C10 13.1 10.9 14 12 14C13.1 14 14 13.1 14 12C14 10.9 13.1 10 12 10ZM12 12C12.55 12 13 12.45 13 13C13 13.55 12.55 14 12 14C11.45 14 11 13.55 11 13C11 12.45 11.45 12 12 12ZM16 10C14.9 10 14 10.9 14 12C14 13.1 14.9 14 16 14C17.1 14 18 13.1 18 12C18 10.9 17.1 10 16 10ZM16 12C16.55 12 17 12.45 17 13C17 13.55 16.55 14 16 14C15.45 14 15 13.55 15 13C15 12.45 15.45 12 16 12ZM8 10C6.9 10 6 10.9 6 12C6 13.1 6.9 14 8 14C9.1 14 10 13.1 10 12C10 10.9 9.1 10 8 10ZM8 12C8.55 12 9 12.45 9 13C9 13.55 8.55 14 8 14C7.45 14 7 13.55 7 13C7 12.45 7.45 12 8 12ZM12 16C10.9 16 10 16.9 10 18C10 19.1 10.9 20 12 20C13.1 20 14 19.1 14 18C14 16.9 13.1 16 12 16ZM12 18C12.55 18 13 18.45 13 19C13 19.55 12.55 20 12 20C11.45 20 11 19.55 11 19C11 18.45 11.45 18 12 18Z" fill="currentColor"/>
</svg>

